<?xml version="1.0" encoding="UTF-8"?>
<!DOCTYPE svg PUBLIC "-//W3C//DTD SVG 1.1//EN" "http://www.w3.org/Graphics/SVG/1.1/DTD/svg11.dtd">
<!-- Creator: CorelDRAW X8 -->
<svg xmlns="http://www.w3.org/2000/svg" xml:space="preserve" width="300mm" height="300mm" version="1.1" style="shape-rendering:geometricPrecision; text-rendering:geometricPrecision; image-rendering:optimizeQuality; fill-rule:evenodd; clip-rule:evenodd"
viewBox="0 0 30000 30000"
 xmlns:xlink="http://www.w3.org/1999/xlink">
 <defs>
  <style type="text/css">
   <![CDATA[
    .str0 {stroke:black;stroke-width:7.62}
    .fil0 {fill:black;fill-rule:nonzero}
   ]]>
  </style>
 </defs>
 <g id="Capa_x0020_1">
  <metadata id="CorelCorpID_0Corel-Layer"/>
  <path class="fil0 str0" d="M15481 28684l-859 0c-4,-903 -367,-1768 -1010,-2403 -643,-635 -1512,-988 -2416,-980l0 -859c904,-3 1768,-367 2403,-1010 635,-643 988,-1512 980,-2416l859 0c4,904 367,1769 1010,2404 643,634 1513,987 2416,980l0 858c-903,4 -1768,368 -2403,1011 -635,643 -988,1512 -980,2415zm-965 -14795l968 0c897,6730 5994,10981 13168,10983l0 -8549c-6018,-691 -10032,-6499 -10371,-15007l-6562 0c-339,8508 -4353,14316 -10371,15007l0 8549c7174,-2 12271,-4253 13168,-10983z"/>
 </g>
</svg>
