<?xml version="1.0" encoding="UTF-8"?>
<!DOCTYPE svg PUBLIC "-//W3C//DTD SVG 1.1//EN" "http://www.w3.org/Graphics/SVG/1.1/DTD/svg11.dtd">
<!-- Creator: CorelDRAW X8 -->
<svg xmlns="http://www.w3.org/2000/svg" xml:space="preserve" width="300mm" height="300mm" version="1.1" style="shape-rendering:geometricPrecision; text-rendering:geometricPrecision; image-rendering:optimizeQuality; fill-rule:evenodd; clip-rule:evenodd"
viewBox="0 0 30000 30000"
 xmlns:xlink="http://www.w3.org/1999/xlink">
 <defs>
  <style type="text/css">
   <![CDATA[
    .str0 {stroke:black;stroke-width:7.62}
    .fil0 {fill:black;fill-rule:nonzero}
   ]]>
  </style>
 </defs>
 <g id="Capa_x0020_1">
  <metadata id="CorelCorpID_0Corel-Layer"/>
  <path class="fil0 str0" d="M16223 25403l-2330 0c-10,-2452 -996,-4798 -2741,-6521 -1745,-1723 -4103,-2680 -6555,-2659l0 -2330c2452,-10 4798,-996 6521,-2741 1723,-1745 2680,-4103 2659,-6555l2330 0c10,2452 997,4798 2741,6521 1745,1723 4103,2680 6555,2659l0 2330c-2452,10 -4798,997 -6521,2741 -1723,1745 -2680,4103 -2659,6555z"/>
 </g>
</svg>
