<?xml version="1.0" encoding="UTF-8"?>
<!DOCTYPE svg PUBLIC "-//W3C//DTD SVG 1.1//EN" "http://www.w3.org/Graphics/SVG/1.1/DTD/svg11.dtd">
<!-- Creator: CorelDRAW X8 -->
<svg xmlns="http://www.w3.org/2000/svg" xml:space="preserve" width="42mm" height="42mm" version="1.1" style="shape-rendering:geometricPrecision; text-rendering:geometricPrecision; image-rendering:optimizeQuality; fill-rule:evenodd; clip-rule:evenodd"
viewBox="0 0 4200 4200"
 xmlns:xlink="http://www.w3.org/1999/xlink">
 <defs>
  <style type="text/css">
   <![CDATA[
    .str0 {stroke:black;stroke-width:7.62}
    .fil0 {fill:black;fill-rule:nonzero}
   ]]>
  </style>
 </defs>
 <g id="Capa_x0020_1">
  <metadata id="CorelCorpID_0Corel-Layer"/>
  <path class="fil0 str0" d="M2170 4101l-125 0c-1,-132 -54,-259 -148,-352 -94,-92 -221,-144 -353,-143l0 -126c132,0 258,-53 351,-147 93,-94 145,-221 143,-353l126 0c1,132 54,258 148,351 94,93 221,144 353,143l0 126c-132,0 -259,54 -351,148 -93,94 -145,221 -144,353zm-141 -2163l142 0c131,984 876,1605 1925,1605l0 -1250c-880,-101 -1467,-950 -1516,-2194l-960 0c-49,1244 -636,2093 -1516,2194l0 1250c1049,0 1794,-621 1925,-1605z"/>
 </g>
</svg>
